<svg version="1.1" id="Layer_1" xmlns="http://www.w3.org/2000/svg" xmlns:xlink="http://www.w3.org/1999/xlink" x="0px" y="0px"
	 width="100%" viewBox="0 0 625 560" enable-background="new 0 0 625 560" xml:space="preserve">
<path fill="#000000" opacity="1.000000" stroke="none" 
	d="
M1.000000,202.000000 
	C1.000000,134.666687 1.000000,67.833374 1.000000,1.000045 
	C209.333252,1.000030 417.666504,1.000030 625.999817,1.000015 
	C625.999878,187.666519 625.999878,374.333038 625.999939,560.999634 
	C417.666870,560.999756 209.333740,560.999756 1.000300,560.999878 
	C1.000000,441.500000 1.000000,322.000000 1.000000,202.000000 
M61.908859,200.567719 
	C61.573391,200.777267 61.237926,200.986832 59.987431,201.051453 
	C43.091251,201.051453 26.195072,201.051453 9.200706,201.051453 
	C9.107725,202.516449 9.011096,203.330170 9.010863,204.143921 
	C8.996929,252.895142 8.918309,301.646729 9.172588,350.396606 
	C9.187162,353.190735 11.747078,356.087189 13.469781,358.707611 
	C14.319687,360.000427 16.260757,360.551575 17.196051,361.816803 
	C21.070784,367.058411 26.176702,369.236237 32.625965,369.059509 
	C39.107979,368.881897 45.600330,369.081787 52.122360,369.742676 
	C52.172321,370.160950 52.222282,370.579193 52.077614,371.751587 
	C53.098179,375.477234 53.809944,379.322784 55.200371,382.904846 
	C58.623947,391.724762 61.843498,400.683258 66.085152,409.112976 
	C73.224396,423.301270 80.082481,437.801666 88.906197,450.929077 
	C100.253296,467.810638 113.755112,483.165710 128.544769,497.293396 
	C130.686142,499.338989 131.366608,499.244049 133.476990,497.386902 
	C140.651535,491.073364 148.044800,484.996002 155.574814,479.110260 
	C156.902939,478.072144 159.966644,477.438507 161.077240,478.231354 
	C168.562668,483.574921 175.449677,489.785400 183.089096,494.877014 
	C191.804153,500.685547 200.747650,506.389404 210.231293,510.747284 
	C222.486938,516.378845 235.291702,520.869202 248.023804,525.389648 
	C255.504074,528.045410 263.184662,530.564819 270.987671,531.774597 
	C280.566589,533.259705 290.358490,533.642151 300.074463,533.904663 
	C312.562256,534.242126 325.097290,534.529724 337.552917,533.812622 
	C347.273285,533.252869 357.087158,531.863098 366.525696,529.505737 
	C377.499603,526.764832 388.353729,523.158997 398.814240,518.847473 
	C411.296936,513.702576 423.796265,508.237427 435.381500,501.379120 
	C446.482178,494.807678 456.493683,486.369507 466.813751,478.527863 
	C469.035675,476.839539 470.252136,476.859467 472.272522,478.657715 
	C479.301971,484.914337 486.542999,490.932587 493.619354,497.137512 
	C495.515839,498.800415 496.908997,500.082275 499.240326,497.525055 
	C507.097260,488.906738 515.412842,480.694366 523.048035,471.888855 
	C535.768188,457.218872 546.466248,441.116180 555.074097,423.689606 
	C558.303162,417.152557 560.634399,410.131775 564.253052,403.836273 
	C570.533142,392.910645 573.013550,380.815155 577.187012,368.995300 
	C590.407349,368.995300 603.627686,368.995300 616.775269,368.995300 
	C616.894470,367.676697 616.978455,367.180420 616.978638,366.684143 
	C616.992493,318.266510 617.000305,269.848846 617.004456,221.431213 
	C617.004517,220.601883 617.216675,219.643906 616.884888,218.962692 
	C612.518860,209.998871 604.436768,201.091705 592.503662,201.008209 
	C584.018616,200.948853 575.533081,200.962601 566.871216,200.491837 
	C566.681213,200.203735 566.415833,200.032547 566.009094,199.189346 
	C565.980225,198.523788 566.164734,197.750580 565.891296,197.208435 
	C559.166504,183.877365 552.892944,170.286285 545.513977,157.325073 
	C533.795471,136.741409 518.438049,118.776939 501.374603,102.558235 
	C490.224426,91.960030 477.614288,82.796608 465.092316,73.775887 
	C455.625916,66.956345 445.614258,60.683422 435.201019,55.448776 
	C425.177948,50.410248 414.506714,46.457008 403.797943,43.035679 
	C388.702728,38.212910 373.458130,33.639889 357.990509,30.281363 
	C348.582001,28.238466 338.627563,28.049671 328.928650,28.139547 
	C307.760193,28.335707 286.427246,26.009396 265.547058,31.921156 
	C257.554993,34.183933 249.269547,35.391590 241.218857,37.471306 
	C233.685211,39.417465 226.036682,41.282917 218.883759,44.254986 
	C207.650284,48.922543 196.545868,54.035820 185.843063,59.806572 
	C175.589539,65.335091 165.409988,71.266678 156.119980,78.248062 
	C144.858139,86.711288 134.428253,96.309608 123.884392,105.693192 
	C110.266891,117.812172 99.161079,132.167740 89.087875,147.228668 
	C82.454559,157.146423 76.565430,167.616898 71.050919,178.208420 
	C67.440865,185.142090 65.096306,192.734634 61.908859,200.567719 
z"/>
<path fill="#E2231A" opacity="1.000000" stroke="none" 
	d="
M52.088154,369.116272 
	C45.600330,369.081787 39.107979,368.881897 32.625965,369.059509 
	C26.176702,369.236237 21.070784,367.058411 17.196051,361.816803 
	C16.260757,360.551575 14.319687,360.000427 13.469781,358.707611 
	C11.747078,356.087189 9.187162,353.190735 9.172588,350.396606 
	C8.918309,301.646729 8.996929,252.895142 9.010863,204.143921 
	C9.011096,203.330170 9.107725,202.516449 9.200706,201.051453 
	C26.195072,201.051453 43.091251,201.051453 60.679047,201.424347 
	C64.644127,202.278854 67.917595,202.760468 71.313217,203.591537 
	C71.813454,204.241379 72.188614,204.799866 72.570007,204.804153 
	C80.841713,204.897247 89.114769,204.984024 97.385429,204.888077 
	C98.235664,204.878220 99.072426,203.705551 100.366447,202.945984 
	C103.930550,202.933746 107.043640,203.047974 110.272186,203.518494 
	C112.419304,204.253738 114.450836,204.963684 116.482651,204.964493 
	C248.239578,205.016830 379.996521,205.011887 511.753448,205.009033 
	C513.085266,205.009003 514.467163,205.176453 515.730591,204.871597 
	C516.514893,204.682373 517.119629,203.748795 518.254517,203.003998 
	C521.815613,202.936813 524.927002,203.014938 528.182251,203.453033 
	C529.013062,204.195724 529.696472,204.903427 530.387817,204.911346 
	C538.005371,204.998657 545.625244,205.034531 553.241455,204.908432 
	C554.137024,204.893616 555.015198,203.825882 556.329468,203.106079 
	C560.187622,202.291840 563.617676,201.617767 567.047729,200.943695 
	C575.533081,200.962601 584.018616,200.948853 592.503662,201.008209 
	C604.436768,201.091705 612.518860,209.998871 616.884888,218.962692 
	C617.216675,219.643906 617.004517,220.601883 617.004456,221.431213 
	C617.000305,269.848846 616.992493,318.266510 616.978638,366.684143 
	C616.978455,367.180420 616.894470,367.676697 616.775269,368.995300 
	C603.627686,368.995300 590.407349,368.995300 576.429016,368.662781 
	C572.296326,368.215546 568.921692,368.100830 565.152344,367.859558 
	C564.215881,367.625854 563.674011,367.518677 562.903442,367.123718 
	C555.902405,366.632294 549.130798,366.360046 542.357117,366.291534 
	C541.209595,366.279907 540.053223,367.144379 538.739746,367.732788 
	C538.578552,367.861481 538.189514,367.998749 537.733643,367.902924 
	C534.505737,367.871857 531.733582,367.936615 528.566284,367.903290 
	C526.824280,367.676392 525.477600,367.547577 523.903687,367.129456 
	C521.882629,366.633698 520.088745,366.246857 518.294739,366.246490 
	C382.019104,366.218414 245.743454,366.216003 109.467834,366.270538 
	C107.600883,366.271271 105.734230,367.019806 103.437286,367.502197 
	C101.548370,367.720154 100.089607,367.855225 98.186661,367.897949 
	C94.936157,367.884308 92.129814,367.962921 88.970245,367.945679 
	C87.121895,367.704559 85.626770,367.559296 83.903549,367.125854 
	C77.405457,367.027405 71.135452,367.217194 64.472549,367.492493 
	C63.290428,367.734589 62.501225,367.891113 61.290283,367.945007 
	C58.175278,368.311707 55.482010,368.781067 52.615749,369.205627 
	C52.442757,369.160828 52.088154,369.116272 52.088154,369.116272 
M350.831848,277.170959 
	C350.831848,282.228271 350.831848,287.285553 350.831848,292.632202 
	C358.760956,292.632202 366.249359,292.776764 373.727722,292.565643 
	C377.013367,292.472900 378.136810,293.492249 378.018494,296.820068 
	C377.787689,303.310699 377.800232,309.820496 378.053497,316.309021 
	C378.104553,317.616547 379.580383,319.878448 380.555664,319.966431 
	C384.969086,320.364441 389.438568,320.140472 394.631439,320.140472 
	C394.631439,310.617737 394.631439,301.742432 394.631439,292.862122 
	C404.028076,292.862122 412.670471,292.862122 422.209839,292.846069 
	C422.953094,292.553741 424.330841,292.287567 424.344086,291.965118 
	C424.533722,287.365387 424.604675,282.756165 424.474701,278.155731 
	C424.463196,277.749176 422.849792,277.387878 421.167389,276.916260 
	C412.446198,276.916260 403.724976,276.916260 394.328735,276.916260 
	C394.328735,267.123444 394.328735,258.264832 394.328735,249.080505 
	C388.515472,249.080505 383.385681,249.080505 377.422974,249.125336 
	C376.614624,250.654953 375.192413,252.151932 375.109009,253.720093 
	C374.818420,259.185883 374.927490,264.677338 375.014526,270.156982 
	C375.058228,272.907532 373.912262,274.057129 371.161041,274.012024 
	C365.847565,273.924927 360.522552,273.826660 355.222565,274.110565 
	C353.817413,274.185852 352.485870,275.635437 350.831848,277.170959 
M272.036163,264.356323 
	C269.898773,268.933716 267.683533,273.476685 265.641693,278.096313 
	C262.305206,285.645081 259.172699,293.284698 255.787521,300.811066 
	C251.578110,310.169952 247.313583,319.507935 242.845459,328.744934 
	C240.607025,333.372528 243.530899,338.896515 248.649643,338.987183 
	C251.981125,339.046204 255.323944,338.841614 258.644470,339.041229 
	C262.130127,339.250793 264.347107,337.838837 265.672272,334.679260 
	C268.043274,329.026031 270.697144,323.480286 272.809143,317.733917 
	C273.973114,314.566925 275.913849,313.930725 278.893433,313.958313 
	C290.056458,314.061676 301.223938,314.142914 312.383514,313.921021 
	C316.294403,313.843201 319.130585,314.283234 320.024506,318.794952 
	C320.464325,321.014771 321.683777,323.085327 322.589386,325.206818 
	C327.974243,337.821838 326.160004,339.620453 341.495514,339.007355 
	C342.992950,338.947479 344.566315,339.273590 345.976379,338.915771 
	C347.850891,338.440063 349.768402,337.707001 351.327026,336.603607 
	C352.044250,336.095825 352.518768,334.192017 352.142670,333.350677 
	C346.284943,320.246796 340.110260,307.283508 334.328278,294.147125 
	C325.669739,274.475403 317.352295,254.653030 308.596436,235.025589 
	C307.785065,233.206863 304.991943,231.518829 302.895935,231.189362 
	C298.992828,230.575806 294.870361,230.613892 290.948547,231.162476 
	C288.840576,231.457321 285.975403,232.901855 285.139954,234.639343 
	C280.560852,244.162445 276.504517,253.936951 272.036163,264.356323 
z"/>
<path fill="#6D777F" opacity="1.000000" stroke="none" 
	d="
M52.788742,369.250427 
	C55.482010,368.781067 58.175278,368.311707 61.394501,368.319214 
	C74.389534,413.887024 97.623070,452.534119 130.837021,485.401733 
	C137.998703,479.605194 144.554291,474.299255 151.474930,468.697815 
	C122.256683,440.126984 101.218369,406.879730 89.323479,368.041565 
	C92.129814,367.962921 94.936157,367.884308 98.281342,368.270172 
	C110.391457,403.886353 129.370804,434.426239 155.742783,460.398071 
	C157.968750,462.590271 159.492264,463.820801 162.806610,461.623810 
	C199.151779,437.531158 239.125229,423.255127 282.398224,418.234528 
	C285.741791,417.846619 286.510040,416.509277 286.445282,413.486328 
	C286.288269,406.156799 286.518646,398.818329 286.326660,391.490448 
	C286.239777,388.174927 287.029419,386.717987 290.727936,386.732971 
	C294.377625,386.747711 295.714172,387.753571 295.633484,391.547791 
	C295.413879,401.875793 294.835846,412.274719 295.736267,422.528198 
	C296.878235,435.532379 293.667633,446.493317 284.320831,455.615997 
	C281.261414,458.601990 280.214600,461.565399 281.865631,466.154449 
	C284.332947,473.012421 279.259216,480.563446 272.159851,482.158325 
	C264.726562,483.828278 257.378479,479.094818 255.960373,471.722992 
	C254.522919,464.250549 259.573853,456.134674 266.871887,456.102631 
	C272.163239,456.079376 274.652618,453.573730 277.190063,449.956238 
	C279.102203,447.230194 281.013947,444.462494 283.260895,442.021759 
	C287.281006,437.654907 286.711823,432.726990 285.832520,427.159546 
	C242.558243,431.961975 203.167450,446.267273 166.316147,470.543488 
	C211.225571,508.125885 261.970703,526.778320 319.676514,525.338013 
	C373.028381,524.006409 419.842957,505.273590 461.216675,470.512054 
	C423.382202,445.419647 382.889740,431.000641 338.486664,426.903290 
	C337.309021,433.259705 337.626648,438.410614 341.821289,442.946838 
	C344.523926,445.869598 346.456360,449.521637 349.245178,452.341187 
	C350.874756,453.988678 353.445557,455.411194 355.705017,455.601105 
	C363.383728,456.246399 369.349365,462.430115 368.780487,469.849091 
	C368.179565,477.686188 361.433014,483.267212 353.641754,482.372467 
	C346.287231,481.527863 339.944061,474.034607 342.337097,467.046326 
	C344.443359,460.895569 341.913849,457.484711 338.569183,453.540924 
	C336.416138,451.002289 334.095001,448.481598 332.559845,445.577271 
	C330.899139,442.435455 329.121368,438.881012 329.033478,435.464417 
	C328.652130,420.641937 328.987335,405.802490 328.789886,390.972839 
	C328.736816,386.987488 330.735870,386.869720 333.746613,386.772827 
	C337.066193,386.665985 338.095673,387.871613 338.012146,391.120331 
	C337.819519,398.614899 338.039856,406.119507 337.899689,413.616394 
	C337.844116,416.586853 338.975739,417.648132 341.911072,417.934906 
	C386.560547,422.297363 427.518707,437.133179 464.977753,461.706238 
	C467.380829,463.282684 468.851074,463.291351 470.935333,461.246521 
	C497.835297,434.855408 517.424500,403.940338 528.961487,368.001373 
	C531.733582,367.936615 534.505737,367.871857 537.636597,368.272400 
	C525.751953,407.175812 504.961975,440.332123 475.721222,468.685425 
	C481.636902,473.476166 487.264404,478.033539 492.991974,482.864258 
	C497.972290,488.374023 498.992676,482.502350 501.466980,479.774567 
	C501.112823,478.982819 500.576599,478.707306 500.020569,478.465271 
	C500.000732,478.498718 500.046021,478.561951 500.293823,478.984009 
	C502.127289,478.357269 503.987701,477.567444 505.257294,476.220642 
	C522.723572,457.692291 537.595032,437.211792 548.158936,414.062653 
	C554.958740,399.161865 559.817993,383.375519 565.546997,367.986084 
	C568.921692,368.100830 572.296326,368.215546 575.979370,368.630920 
	C573.013550,380.815155 570.533142,392.910645 564.253052,403.836273 
	C560.634399,410.131775 558.303162,417.152557 555.074097,423.689606 
	C546.466248,441.116180 535.768188,457.218872 523.048035,471.888855 
	C515.412842,480.694366 507.097260,488.906738 499.240326,497.525055 
	C496.908997,500.082275 495.515839,498.800415 493.619354,497.137512 
	C486.542999,490.932587 479.301971,484.914337 472.272522,478.657715 
	C470.252136,476.859467 469.035675,476.839539 466.813751,478.527863 
	C456.493683,486.369507 446.482178,494.807678 435.381500,501.379120 
	C423.796265,508.237427 411.296936,513.702576 398.814240,518.847473 
	C388.353729,523.158997 377.499603,526.764832 366.525696,529.505737 
	C357.087158,531.863098 347.273285,533.252869 337.552917,533.812622 
	C325.097290,534.529724 312.562256,534.242126 300.074463,533.904663 
	C290.358490,533.642151 280.566589,533.259705 270.987671,531.774597 
	C263.184662,530.564819 255.504074,528.045410 248.023804,525.389648 
	C235.291702,520.869202 222.486938,516.378845 210.231293,510.747284 
	C200.747650,506.389404 191.804153,500.685547 183.089096,494.877014 
	C175.449677,489.785400 168.562668,483.574921 161.077240,478.231354 
	C159.966644,477.438507 156.902939,478.072144 155.574814,479.110260 
	C148.044800,484.996002 140.651535,491.073364 133.476990,497.386902 
	C131.366608,499.244049 130.686142,499.338989 128.544769,497.293396 
	C113.755112,483.165710 100.253296,467.810638 88.906197,450.929077 
	C80.082481,437.801666 73.224396,423.301270 66.085152,409.112976 
	C61.843498,400.683258 58.623947,391.724762 55.200371,382.904846 
	C53.809944,379.322784 53.098179,375.477234 52.341621,371.192261 
	C52.666664,370.172089 52.727703,369.711273 52.788742,369.250427 
M325.095764,527.004395 
	C316.257080,527.004395 307.418396,527.004395 298.579681,527.004395 
	C298.584961,527.230591 298.590240,527.456787 298.595520,527.682983 
	C308.848206,527.682983 319.100861,527.682983 329.353546,527.682983 
	C329.352844,527.456238 329.352173,527.229553 329.351471,527.002808 
	C328.219238,527.002808 327.086975,527.002808 325.095764,527.004395 
z"/>
<path fill="#6D767E" opacity="1.000000" stroke="none" 
	d="
M62.184952,200.032089 
	C65.096306,192.734634 67.440865,185.142090 71.050919,178.208420 
	C76.565430,167.616898 82.454559,157.146423 89.087875,147.228668 
	C99.161079,132.167740 110.266891,117.812172 123.884392,105.693192 
	C134.428253,96.309608 144.858139,86.711288 156.119980,78.248062 
	C165.409988,71.266678 175.589539,65.335091 185.843063,59.806572 
	C196.545868,54.035820 207.650284,48.922543 218.883759,44.254986 
	C226.036682,41.282917 233.685211,39.417465 241.218857,37.471306 
	C249.269547,35.391590 257.554993,34.183933 265.547058,31.921156 
	C286.427246,26.009396 307.760193,28.335707 328.928650,28.139547 
	C338.627563,28.049671 348.582001,28.238466 357.990509,30.281363 
	C373.458130,33.639889 388.702728,38.212910 403.797943,43.035679 
	C414.506714,46.457008 425.177948,50.410248 435.201019,55.448776 
	C445.614258,60.683422 455.625916,66.956345 465.092316,73.775887 
	C477.614288,82.796608 490.224426,91.960030 501.374603,102.558235 
	C518.438049,118.776939 533.795471,136.741409 545.513977,157.325073 
	C552.892944,170.286285 559.166504,183.877365 565.891296,197.208435 
	C566.164734,197.750580 565.980225,198.523788 565.585876,199.594223 
	C562.144531,200.000854 559.126465,200.002625 555.887695,199.734650 
	C555.288696,198.381790 554.910217,197.298660 554.720581,196.077637 
	C555.034607,195.703156 555.159912,195.466553 555.285217,195.229950 
	C555.035400,195.541626 554.785522,195.853287 554.275757,195.890854 
	C553.084167,193.663498 552.170837,191.701248 551.218140,189.758316 
	C510.328857,106.368584 444.571472,54.642380 352.632355,40.860619 
	C259.047058,26.832087 179.979218,57.671162 116.472527,127.793541 
	C97.864586,148.339935 84.033508,172.070190 72.344231,197.306000 
	C68.694748,198.213104 65.439850,199.122604 62.184952,200.032089 
z"/>
<path fill="#797A81" opacity="1.000000" stroke="none" 
	d="
M62.046906,200.299896 
	C65.439850,199.122604 68.694748,198.213104 72.273468,197.687469 
	C72.287086,199.553879 71.976883,201.036438 71.569519,202.714066 
	C71.472359,202.909134 71.191055,203.242065 71.191055,203.242065 
	C67.917595,202.760468 64.644127,202.278854 61.136566,201.496826 
	C61.237926,200.986832 61.573391,200.777267 62.046906,200.299896 
z"/>
<path fill="#797A81" opacity="1.000000" stroke="none" 
	d="
M556.108337,200.004379 
	C559.126465,200.002625 562.144531,200.000854 565.618835,199.988678 
	C566.415833,200.032547 566.681213,200.203735 566.959473,200.717773 
	C563.617676,201.617767 560.187622,202.291840 556.315063,202.885559 
	C555.872498,202.805222 556.087158,202.418884 556.019958,202.122345 
	C556.004639,201.218658 556.056519,200.611526 556.108337,200.004379 
z"/>
<path fill="#E75851" opacity="1.000000" stroke="none" 
	d="
M52.615749,369.205627 
	C52.727703,369.711273 52.666664,370.172089 52.438934,370.815186 
	C52.222282,370.579193 52.172321,370.160950 52.105255,369.429474 
	C52.088154,369.116272 52.442757,369.160828 52.615749,369.205627 
z"/>
<path fill="#FDFDFD" opacity="1.000000" stroke="none" 
	d="
M528.566284,367.903290 
	C517.424500,403.940338 497.835297,434.855408 470.935333,461.246521 
	C468.851074,463.291351 467.380829,463.282684 464.977753,461.706238 
	C427.518707,437.133179 386.560547,422.297363 341.911072,417.934906 
	C338.975739,417.648132 337.844116,416.586853 337.899689,413.616394 
	C338.039856,406.119507 337.819519,398.614899 338.012146,391.120331 
	C338.095673,387.871613 337.066193,386.665985 333.746613,386.772827 
	C330.735870,386.869720 328.736816,386.987488 328.789886,390.972839 
	C328.987335,405.802490 328.652130,420.641937 329.033478,435.464417 
	C329.121368,438.881012 330.899139,442.435455 332.559845,445.577271 
	C334.095001,448.481598 336.416138,451.002289 338.569183,453.540924 
	C341.913849,457.484711 344.443359,460.895569 342.337097,467.046326 
	C339.944061,474.034607 346.287231,481.527863 353.641754,482.372467 
	C361.433014,483.267212 368.179565,477.686188 368.780487,469.849091 
	C369.349365,462.430115 363.383728,456.246399 355.705017,455.601105 
	C353.445557,455.411194 350.874756,453.988678 349.245178,452.341187 
	C346.456360,449.521637 344.523926,445.869598 341.821289,442.946838 
	C337.626648,438.410614 337.309021,433.259705 338.486664,426.903290 
	C382.889740,431.000641 423.382202,445.419647 461.216675,470.512054 
	C419.842957,505.273590 373.028381,524.006409 319.676514,525.338013 
	C261.970703,526.778320 211.225571,508.125885 166.316147,470.543488 
	C203.167450,446.267273 242.558243,431.961975 285.832520,427.159546 
	C286.711823,432.726990 287.281006,437.654907 283.260895,442.021759 
	C281.013947,444.462494 279.102203,447.230194 277.190063,449.956238 
	C274.652618,453.573730 272.163239,456.079376 266.871887,456.102631 
	C259.573853,456.134674 254.522919,464.250549 255.960373,471.722992 
	C257.378479,479.094818 264.726562,483.828278 272.159851,482.158325 
	C279.259216,480.563446 284.332947,473.012421 281.865631,466.154449 
	C280.214600,461.565399 281.261414,458.601990 284.320831,455.615997 
	C293.667633,446.493317 296.878235,435.532379 295.736267,422.528198 
	C294.835846,412.274719 295.413879,401.875793 295.633484,391.547791 
	C295.714172,387.753571 294.377625,386.747711 290.727936,386.732971 
	C287.029419,386.717987 286.239777,388.174927 286.326660,391.490448 
	C286.518646,398.818329 286.288269,406.156799 286.445282,413.486328 
	C286.510040,416.509277 285.741791,417.846619 282.398224,418.234528 
	C239.125229,423.255127 199.151779,437.531158 162.806610,461.623810 
	C159.492264,463.820801 157.968750,462.590271 155.742783,460.398071 
	C129.370804,434.426239 110.391457,403.886353 98.725517,368.362488 
	C100.089607,367.855225 101.548370,367.720154 103.885132,367.679169 
	C105.927979,367.815125 107.092819,367.893585 108.257668,367.893616 
	C245.239838,367.899323 382.221985,367.900848 519.204163,367.879395 
	C520.846375,367.879120 522.488647,367.578949 524.130859,367.418762 
	C525.477600,367.547577 526.824280,367.676392 528.566284,367.903290 
M308.018158,483.607635 
	C308.032135,484.078827 308.046112,484.550018 307.438080,485.295624 
	C306.614746,485.858154 305.770111,486.392181 304.971375,486.987732 
	C298.056183,492.143738 296.867432,500.892548 302.233032,507.062134 
	C307.463623,513.076416 316.740356,513.241028 322.119202,507.414948 
	C327.723602,501.344666 326.936890,492.544189 319.858826,487.428741 
	C317.080231,485.420624 316.692078,483.210785 316.698212,480.246277 
	C316.758118,451.313568 316.733826,422.380707 316.738037,393.447876 
	C316.739136,385.995026 315.900299,385.388885 307.882843,388.049500 
	C307.789612,389.035736 307.615387,390.021973 307.614929,391.008240 
	C307.601074,420.359009 307.596924,449.709747 307.630188,479.060486 
	C307.631653,480.347900 308.000763,481.634918 308.018158,483.607635 
z"/>
<path fill="#797A81" opacity="1.000000" stroke="none" 
	d="
M528.038452,203.093063 
	C524.927002,203.014938 521.815613,202.936813 518.159302,202.845764 
	C517.614380,202.832809 517.478699,202.486801 517.351196,202.157959 
	C516.602844,200.302597 516.085266,198.724091 515.346436,197.256973 
	C472.868164,112.903664 382.321686,63.567268 288.253723,74.878731 
	C212.156296,84.029297 155.266464,123.243027 116.527489,189.100174 
	C114.119751,193.193405 112.486938,197.742432 110.574226,202.278717 
	C110.485947,202.704010 110.319901,202.932068 110.156731,203.162216 
	C107.043640,203.047974 103.930550,202.933746 100.314629,202.714752 
	C99.811798,202.610001 99.882149,202.140976 99.888916,201.818024 
	C152.822784,85.831909 286.688202,32.930077 404.113953,81.947380 
	C460.915558,105.658211 502.120850,146.167068 527.941895,202.433075 
	C528.044495,202.636826 528.038452,203.093063 528.038452,203.093063 
z"/>
<path fill="#FCFCFC" opacity="1.000000" stroke="none" 
	d="
M88.970245,367.945679 
	C101.218369,406.879730 122.256683,440.126984 151.474930,468.697815 
	C144.554291,474.299255 137.998703,479.605194 130.837021,485.401733 
	C97.623070,452.534119 74.389534,413.887024 61.816238,368.421814 
	C62.501225,367.891113 63.290428,367.734589 64.919830,367.670746 
	C71.883904,367.646973 78.007774,367.530487 84.131653,367.414001 
	C85.626770,367.559296 87.121895,367.704559 88.970245,367.945679 
z"/>
<path fill="#FCFCFC" opacity="1.000000" stroke="none" 
	d="
M565.152344,367.859558 
	C559.817993,383.375519 554.958740,399.161865 548.158936,414.062653 
	C537.595032,437.211792 522.723572,457.692291 505.257294,476.220642 
	C503.987701,477.567444 502.127289,478.357269 500.109375,478.624695 
	C497.499420,477.451569 495.321625,477.059814 493.143860,476.668030 
	C493.174835,478.044678 493.205811,479.421295 493.139130,481.243958 
	C492.991638,481.990295 492.941772,482.290588 492.891907,482.590881 
	C487.264404,478.033539 481.636902,473.476166 475.721222,468.685425 
	C504.961975,440.332123 525.751953,407.175812 538.092407,368.368225 
	C538.189514,367.998749 538.578552,367.861481 539.204468,367.834839 
	C547.597656,367.675964 555.364929,367.543732 563.132202,367.411499 
	C563.674011,367.518677 564.215881,367.625854 565.152344,367.859558 
z"/>
<path fill="#FEF7F6" opacity="1.000000" stroke="none" 
	d="
M378.255890,249.080505 
	C383.385681,249.080505 388.515472,249.080505 394.328735,249.080505 
	C394.328735,258.264832 394.328735,267.123444 394.328735,276.916260 
	C403.724976,276.916260 412.446198,276.916260 421.581604,277.427246 
	C421.768188,282.912872 421.540527,287.887512 421.312866,292.862122 
	C412.670471,292.862122 404.028076,292.862122 394.631439,292.862122 
	C394.631439,301.742432 394.631439,310.617737 394.631439,320.140472 
	C389.438568,320.140472 384.969086,320.364441 380.555664,319.966431 
	C379.580383,319.878448 378.104553,317.616547 378.053497,316.309021 
	C377.800232,309.820496 377.787689,303.310699 378.018494,296.820068 
	C378.136810,293.492249 377.013367,292.472900 373.727722,292.565643 
	C366.249359,292.776764 358.760956,292.632202 350.831848,292.632202 
	C350.831848,287.285553 350.831848,282.228271 351.433411,276.877533 
	C359.314117,276.586548 366.597046,276.452393 373.870697,276.653076 
	C377.166321,276.743988 378.084198,275.706055 378.005066,272.375580 
	C377.820770,264.616913 378.140411,256.846283 378.255890,249.080505 
z"/>
<path fill="#E3241B" opacity="1.000000" stroke="none" 
	d="
M272.152405,263.990723 
	C276.504517,253.936951 280.560852,244.162445 285.139954,234.639343 
	C285.975403,232.901855 288.840576,231.457321 290.948547,231.162476 
	C294.870361,230.613892 298.992828,230.575806 302.895935,231.189362 
	C304.991943,231.518829 307.785065,233.206863 308.596436,235.025589 
	C317.352295,254.653030 325.669739,274.475403 334.328278,294.147125 
	C340.110260,307.283508 346.284943,320.246796 352.142670,333.350677 
	C352.518768,334.192017 352.044250,336.095825 351.327026,336.603607 
	C349.768402,337.707001 347.850891,338.440063 345.976379,338.915771 
	C344.566315,339.273590 342.992950,338.947479 341.495514,339.007355 
	C326.160004,339.620453 327.974243,337.821838 322.589386,325.206818 
	C321.683777,323.085327 320.464325,321.014771 320.024506,318.794952 
	C319.130585,314.283234 316.294403,313.843201 312.383514,313.921021 
	C301.223938,314.142914 290.056458,314.061676 278.893433,313.958313 
	C275.913849,313.930725 273.973114,314.566925 272.809143,317.733917 
	C270.697144,323.480286 268.043274,329.026031 265.672272,334.679260 
	C264.347107,337.838837 262.130127,339.250793 258.644470,339.041229 
	C255.323944,338.841614 251.981125,339.046204 248.649643,338.987183 
	C243.530899,338.896515 240.607025,333.372528 242.845459,328.744934 
	C247.313583,319.507935 251.578110,310.169952 255.787521,300.811066 
	C259.172699,293.284698 262.305206,285.645081 265.641693,278.096313 
	C267.683533,273.476685 269.898773,268.933716 272.152405,263.990723 
M324.504578,279.024841 
	C319.525208,267.582550 314.511719,256.154938 309.576385,244.693680 
	C304.920227,233.880707 304.953674,234.011719 293.210052,233.793137 
	C289.494507,233.723984 287.655426,234.878998 286.150970,238.368744 
	C272.911926,269.077545 259.453217,299.691650 246.079544,330.342529 
	C245.512650,331.641754 245.142090,333.026703 244.460159,335.011871 
	C249.577835,335.011871 254.040192,334.808350 258.473083,335.082214 
	C261.517151,335.270233 262.989197,334.039764 264.025818,331.356354 
	C266.101471,325.983521 268.616364,320.774323 270.550171,315.354950 
	C271.801422,311.848389 273.645844,310.539276 277.477295,310.620056 
	C289.791992,310.879700 302.125305,311.002991 314.430847,310.580170 
	C319.402283,310.409302 320.958099,312.650208 322.353333,316.720245 
	C324.261993,322.288025 326.809265,327.644623 329.257904,333.011810 
	C329.656616,333.885712 330.941132,334.881958 331.846252,334.911835 
	C337.230743,335.089478 342.624023,334.999634 348.964355,334.999634 
	C340.627869,315.894165 332.732819,297.800415 324.504578,279.024841 
z"/>
<path fill="#E75851" opacity="1.000000" stroke="none" 
	d="
M523.903687,367.129456 
	C522.488647,367.578949 520.846375,367.879120 519.204163,367.879395 
	C382.221985,367.900848 245.239838,367.899323 108.257668,367.893616 
	C107.092819,367.893585 105.927979,367.815125 104.315285,367.596283 
	C105.734230,367.019806 107.600883,366.271271 109.467834,366.270538 
	C245.743454,366.216003 382.019104,366.218414 518.294739,366.246490 
	C520.088745,366.246857 521.882629,366.633698 523.903687,367.129456 
z"/>
<path fill="#DF0D03" opacity="1.000000" stroke="none" 
	d="
M517.478699,202.486801 
	C517.478699,202.486801 517.614380,202.832809 517.709656,202.991058 
	C517.119629,203.748795 516.514893,204.682373 515.730591,204.871597 
	C514.467163,205.176453 513.085266,205.009003 511.753448,205.009033 
	C379.996521,205.011887 248.239578,205.016830 116.482651,204.964493 
	C114.450836,204.963684 112.419304,204.253738 110.272186,203.518494 
	C110.319901,202.932068 110.485947,202.704010 110.979652,202.502655 
	C114.633118,202.570923 117.961792,202.652557 121.290459,202.652725 
	C250.526047,202.659180 379.761627,202.659256 508.997223,202.650986 
	C511.824371,202.650803 514.651550,202.543900 517.478699,202.486801 
z"/>
<path fill="#E11A10" opacity="1.000000" stroke="none" 
	d="
M377.839417,249.102921 
	C378.140411,256.846283 377.820770,264.616913 378.005066,272.375580 
	C378.084198,275.706055 377.166321,276.743988 373.870697,276.653076 
	C366.597046,276.452393 359.314117,276.586548 351.577759,276.519043 
	C352.485870,275.635437 353.817413,274.185852 355.222565,274.110565 
	C360.522552,273.826660 365.847565,273.924927 371.161041,274.012024 
	C373.912262,274.057129 375.058228,272.907532 375.014526,270.156982 
	C374.927490,264.677338 374.818420,259.185883 375.109009,253.720093 
	C375.192413,252.151932 376.614624,250.654953 377.839417,249.102921 
z"/>
<path fill="#DF0D03" opacity="1.000000" stroke="none" 
	d="
M71.313217,203.591537 
	C71.191055,203.242065 71.472359,202.909134 72.073883,202.782562 
	C81.744316,202.484329 90.813232,202.312653 99.882149,202.140976 
	C99.882149,202.140976 99.811798,202.610001 99.863617,202.841217 
	C99.072426,203.705551 98.235664,204.878220 97.385429,204.888077 
	C89.114769,204.984024 80.841713,204.897247 72.570007,204.804153 
	C72.188614,204.799866 71.813454,204.241379 71.313217,203.591537 
z"/>
<path fill="#DF0D03" opacity="1.000000" stroke="none" 
	d="
M555.886963,203.025742 
	C555.015198,203.825882 554.137024,204.893616 553.241455,204.908432 
	C545.625244,205.034531 538.005371,204.998657 530.387817,204.911346 
	C529.696472,204.903427 529.013062,204.195724 528.182251,203.453033 
	C528.038452,203.093063 528.044495,202.636826 528.412781,202.576126 
	C537.883118,202.483246 546.985107,202.451065 556.087158,202.418884 
	C556.087158,202.418884 555.872498,202.805222 555.886963,203.025742 
z"/>
<path fill="#E0140B" opacity="1.000000" stroke="none" 
	d="
M421.761353,292.854095 
	C421.540527,287.887512 421.768188,282.912872 421.988098,277.471924 
	C422.849792,277.387878 424.463196,277.749176 424.474701,278.155731 
	C424.604675,282.756165 424.533722,287.365387 424.344086,291.965118 
	C424.330841,292.287567 422.953094,292.553741 421.761353,292.854095 
z"/>
<path fill="#E75851" opacity="1.000000" stroke="none" 
	d="
M562.903442,367.123718 
	C555.364929,367.543732 547.597656,367.675964 539.365662,367.706146 
	C540.053223,367.144379 541.209595,366.279907 542.357117,366.291534 
	C549.130798,366.360046 555.902405,366.632294 562.903442,367.123718 
z"/>
<path fill="#E75851" opacity="1.000000" stroke="none" 
	d="
M83.903549,367.125824 
	C78.007774,367.530487 71.883904,367.646973 65.312744,367.585205 
	C71.135452,367.217194 77.405457,367.027405 83.903549,367.125824 
z"/>
<path fill="#979EA4" opacity="1.000000" stroke="none" 
	d="
M493.236786,480.797913 
	C493.205811,479.421295 493.174835,478.044678 493.143860,476.668030 
	C495.321625,477.059814 497.499420,477.451569 499.861603,478.202637 
	C500.046021,478.561951 500.000732,478.498718 499.839722,478.838928 
	C499.595306,479.443054 499.511932,479.706970 499.139099,480.064148 
	C496.978699,480.370911 495.107727,480.584381 493.236786,480.797913 
z"/>
<path fill="#5D6771" opacity="1.000000" stroke="none" 
	d="
M325.525238,527.003601 
	C327.086975,527.002808 328.219238,527.002808 329.351471,527.002808 
	C329.352173,527.229553 329.352844,527.456238 329.353546,527.682983 
	C319.100861,527.682983 308.848206,527.682983 298.595520,527.682983 
	C298.590240,527.456787 298.584961,527.230591 298.579681,527.004395 
	C307.418396,527.004395 316.257080,527.004395 325.525238,527.003601 
z"/>
<path fill="#CFD3D5" opacity="1.000000" stroke="none" 
	d="
M493.139130,481.243958 
	C495.107727,480.584381 496.978699,480.370911 499.604340,480.138977 
	C500.667664,480.177338 500.976257,480.234070 501.284882,480.290771 
	C498.992676,482.502350 497.972290,488.374023 492.991974,482.864258 
	C492.941772,482.290588 492.991638,481.990295 493.139130,481.243958 
z"/>
<path fill="#FCFCFC" opacity="1.000000" stroke="none" 
	d="
M501.466980,479.774567 
	C500.976257,480.234070 500.667664,480.177338 499.893799,480.045715 
	C499.511932,479.706970 499.595306,479.443054 499.859558,478.805481 
	C500.576599,478.707306 501.112823,478.982819 501.466980,479.774567 
z"/>
<path fill="#FCFCFC" opacity="1.000000" stroke="none" 
	d="
M556.019958,202.122345 
	C546.985107,202.451065 537.883118,202.483246 528.310181,202.372375 
	C502.120850,146.167068 460.915558,105.658211 404.113953,81.947380 
	C286.688202,32.930077 152.822784,85.831909 99.888916,201.818024 
	C90.813232,202.312653 81.744316,202.484329 72.171036,202.587494 
	C71.976883,201.036438 72.287086,199.553879 72.668053,197.689850 
	C84.033508,172.070190 97.864586,148.339935 116.472527,127.793541 
	C179.979218,57.671162 259.047058,26.832087 352.632355,40.860619 
	C444.571472,54.642380 510.328857,106.368584 551.218140,189.758316 
	C552.170837,191.701248 553.084167,193.663498 554.287659,195.896484 
	C554.559448,196.176239 554.531799,196.215530 554.531799,196.215530 
	C554.910217,197.298660 555.288696,198.381790 555.887695,199.734650 
	C556.056519,200.611526 556.004639,201.218658 556.019958,202.122345 
z"/>
<path fill="#797A81" opacity="1.000000" stroke="none" 
	d="
M554.720581,196.077637 
	C554.531799,196.215530 554.559448,196.176239 554.547546,196.170593 
	C554.785522,195.853287 555.035400,195.541626 555.285217,195.229950 
	C555.159912,195.466553 555.034607,195.703156 554.720581,196.077637 
z"/>
<path fill="#717A82" opacity="1.000000" stroke="none" 
	d="
M308.313171,387.413635 
	C315.900299,385.388885 316.739136,385.995026 316.738037,393.447876 
	C316.733826,422.380707 316.758118,451.313568 316.698212,480.246277 
	C316.692078,483.210785 317.080231,485.420624 319.858826,487.428741 
	C326.936890,492.544189 327.723602,501.344666 322.119202,507.414948 
	C316.740356,513.241028 307.463623,513.076416 302.233032,507.062134 
	C296.867432,500.892548 298.056183,492.143738 304.971375,486.987732 
	C305.770111,486.392181 306.614746,485.858154 308.059509,485.207947 
	C309.126984,483.747833 309.958893,482.376404 309.962372,481.002869 
	C310.037323,451.610718 310.034241,422.218292 309.978302,392.826050 
	C309.975311,391.248383 309.375702,389.671814 308.875854,387.916626 
	C308.569672,387.630188 308.441437,387.521912 308.313171,387.413635 
z"/>
<path fill="#717A82" opacity="1.000000" stroke="none" 
	d="
M308.198608,482.922119 
	C308.000763,481.634918 307.631653,480.347900 307.630188,479.060486 
	C307.596924,449.709747 307.601074,420.359009 307.614929,391.008240 
	C307.615387,390.021973 307.789612,389.035736 308.098022,387.731567 
	C308.441437,387.521912 308.569672,387.630188 308.867554,388.374146 
	C309.037628,418.386566 309.053925,447.763367 309.002594,477.140045 
	C308.999207,479.067871 308.478607,480.994781 308.198608,482.922119 
z"/>
<path fill="#5B656F" opacity="1.000000" stroke="none" 
	d="
M308.108398,483.264893 
	C308.478607,480.994781 308.999207,479.067871 309.002594,477.140045 
	C309.053925,447.763367 309.037628,418.386566 309.045471,388.552277 
	C309.375702,389.671814 309.975311,391.248383 309.978302,392.826050 
	C310.034241,422.218292 310.037323,451.610718 309.962372,481.002869 
	C309.958893,482.376404 309.126984,483.747833 308.370483,485.070740 
	C308.046112,484.550018 308.032135,484.078827 308.108398,483.264893 
z"/>
<path fill="#FEFCFC" opacity="1.000000" stroke="none" 
	d="
M517.351196,202.157959 
	C514.651550,202.543900 511.824371,202.650803 508.997223,202.650986 
	C379.761627,202.659256 250.526047,202.659180 121.290459,202.652725 
	C117.961792,202.652557 114.633118,202.570923 110.899025,202.303345 
	C112.486938,197.742432 114.119751,193.193405 116.527489,189.100174 
	C155.266464,123.243027 212.156296,84.029297 288.253723,74.878731 
	C382.321686,63.567268 472.868164,112.903664 515.346436,197.256973 
	C516.085266,198.724091 516.602844,200.302597 517.351196,202.157959 
M316.385925,147.218903 
	C316.179138,147.406387 316.040344,147.635117 315.595001,148.469727 
	C315.270081,149.279251 314.945129,150.088776 314.099762,151.353668 
	C313.823029,152.914322 313.546265,154.474991 313.020142,156.938995 
	C313.020142,166.139709 313.020142,175.340424 313.020142,184.541138 
	C313.476562,184.673508 313.932983,184.805893 314.389374,184.938263 
	C315.573151,183.951645 316.756927,182.965042 318.568451,181.654037 
	C318.753174,180.777863 318.937927,179.901672 319.388000,178.146515 
	C319.431610,175.101868 319.475220,172.057220 320.059784,169.068878 
	C320.603180,169.059677 321.146545,169.050476 322.132324,169.642288 
	C324.478638,170.944565 326.724304,173.108047 329.189117,173.395996 
	C338.521851,174.486267 344.886475,169.672348 348.266785,159.750473 
	C348.113464,158.479675 347.960175,157.208893 347.489655,155.199142 
	C343.969818,141.811691 330.040619,136.607681 319.014587,144.974548 
	C318.251740,145.648911 317.488892,146.323288 316.385925,147.218903 
M302.546875,153.619324 
	C302.778259,158.433731 303.009644,163.248123 303.634766,168.741745 
	C305.280975,170.465775 306.927155,172.189789 308.573364,173.913818 
	C309.028015,173.615829 309.482635,173.317841 309.937286,173.019852 
	C309.937286,166.775421 309.987518,160.530502 309.925995,154.286667 
	C309.823212,143.851837 299.812378,137.704376 290.731049,142.755142 
	C288.261536,144.128601 286.851074,143.860611 284.565155,142.639160 
	C275.894135,138.005905 266.037689,143.656570 265.432617,153.653824 
	C264.483459,152.498276 263.316254,151.459900 262.621735,150.167511 
	C259.022797,143.470184 250.439087,139.673294 242.481674,141.390793 
	C234.523758,143.108368 228.882355,149.152786 228.541504,156.326721 
	C228.157486,164.409424 233.541138,171.091690 242.050583,173.094360 
	C250.553619,175.095490 259.483673,171.133438 262.888855,164.029755 
	C263.612152,162.520889 264.978394,161.320221 265.831665,160.720657 
	C265.899139,161.484665 265.966583,162.248688 265.742828,163.724258 
	C266.097137,166.718643 266.451447,169.713028 267.614166,172.915848 
	C271.118225,171.716278 272.395020,169.149200 272.293762,165.592606 
	C272.194611,162.108200 272.208557,158.617645 272.280853,155.132019 
	C272.376831,150.506149 274.871796,147.515213 278.592285,147.875870 
	C282.738647,148.277817 284.645691,150.876236 284.603119,155.007690 
	C284.562012,158.992554 284.484375,162.981842 284.620972,166.962372 
	C284.750092,170.725586 286.618958,173.008240 291.249298,173.391144 
	C291.249298,166.980927 291.273834,160.892578 291.239807,154.804550 
	C291.220398,151.331406 292.790039,148.916290 296.196960,148.358902 
	C299.679230,147.789230 302.404633,149.023804 302.546875,153.619324 
M441.050629,171.392517 
	C441.537994,171.463776 442.134766,171.750626 442.493622,171.568573 
	C443.962708,170.823196 445.767181,170.216583 446.617676,168.985260 
	C447.072144,168.327286 446.121948,165.673141 445.296814,165.386948 
	C443.902771,164.903412 442.084869,165.488235 440.484314,165.815399 
	C439.624878,165.991089 438.846985,166.565643 437.786804,166.276520 
	C432.973633,155.678360 428.337555,144.993256 423.210602,134.549133 
	C422.067474,132.220398 419.323059,129.490585 417.084839,129.267899 
	C415.341980,129.094498 412.502930,132.172531 411.421509,134.417542 
	C405.721405,146.250885 400.411804,158.272751 395.012054,170.249619 
	C394.587616,171.191010 394.509460,172.288513 394.270355,173.313477 
	C394.674988,173.744537 395.079590,174.175583 395.484222,174.606644 
	C397.978241,172.833725 402.020935,171.503738 402.678223,169.205505 
	C404.716949,162.076950 409.510132,161.738571 415.292450,162.235947 
	C417.439667,162.420654 419.646729,162.498459 421.773071,162.218765 
	C426.677856,161.573669 429.793823,163.019882 431.706909,168.024826 
	C432.540131,170.204742 435.615509,171.586166 437.832581,173.095230 
	C438.075592,173.260635 439.378052,171.869629 441.050629,171.392517 
M217.992554,138.290527 
	C221.255936,140.725067 224.012253,145.022583 229.017822,141.459824 
	C226.036331,132.219177 214.399567,126.376167 202.736252,128.108673 
	C191.312454,129.805603 182.728104,139.092270 182.474792,150.027802 
	C182.212067,161.370087 190.555008,170.780457 202.760544,172.908981 
	C212.973495,174.690002 224.673004,169.632080 227.314728,162.136627 
	C224.203339,159.895905 221.717133,161.549606 218.712997,162.883255 
	C214.450302,164.775589 209.751053,166.713364 205.222412,166.751755 
	C197.167480,166.820053 190.391296,160.186737 189.305527,152.773819 
	C188.298874,145.901047 192.826126,138.977112 200.171036,136.137070 
	C206.196472,133.807205 211.906082,134.546967 217.992554,138.290527 
M372.476318,128.679855 
	C360.698639,128.679855 348.920990,128.679855 336.928162,128.679855 
	C337.061340,133.218063 339.355225,134.974777 342.873016,135.228592 
	C346.022614,135.455841 349.219177,135.514084 352.360626,135.245148 
	C355.986725,134.934692 356.909241,136.422211 356.830872,139.843369 
	C356.628693,148.668869 356.770538,157.502106 356.761353,166.332245 
	C356.757172,170.355804 358.420471,172.874512 363.308594,173.396454 
	C363.308594,171.457108 363.308807,169.843277 363.308563,168.229462 
	C363.307129,158.732895 363.459778,149.232498 363.225342,139.741684 
	C363.136169,136.132584 364.386627,135.005402 367.826294,135.253067 
	C370.973633,135.479675 374.173096,135.490845 377.311646,135.194702 
	C380.745880,134.870697 383.208710,133.236099 383.046265,128.679749 
	C379.736938,128.679749 376.600494,128.679749 372.476318,128.679855 
M385.559265,131.418289 
	C385.544098,142.910065 385.564026,154.402054 385.494934,165.893509 
	C385.470276,169.994370 386.787170,172.874802 391.693512,173.679016 
	C391.865112,172.111847 392.117493,170.855698 392.122223,169.598648 
	C392.162842,158.773087 392.251465,147.945953 392.085144,137.122986 
	C392.054138,135.105194 391.320312,132.859650 390.218079,131.171494 
	C389.317322,129.791901 387.538544,127.593575 385.559265,131.418289 
z"/>
<path fill="#FEF6F6" opacity="1.000000" stroke="none" 
	d="
M324.671173,279.365753 
	C332.732819,297.800415 340.627869,315.894165 348.964355,334.999634 
	C342.624023,334.999634 337.230743,335.089478 331.846252,334.911835 
	C330.941132,334.881958 329.656616,333.885712 329.257904,333.011810 
	C326.809265,327.644623 324.261993,322.288025 322.353333,316.720245 
	C320.958099,312.650208 319.402283,310.409302 314.430847,310.580170 
	C302.125305,311.002991 289.791992,310.879700 277.477295,310.620056 
	C273.645844,310.539276 271.801422,311.848389 270.550171,315.354950 
	C268.616364,320.774323 266.101471,325.983521 264.025818,331.356354 
	C262.989197,334.039764 261.517151,335.270233 258.473083,335.082214 
	C254.040192,334.808350 249.577835,335.011871 244.460159,335.011871 
	C245.142090,333.026703 245.512650,331.641754 246.079544,330.342529 
	C259.453217,299.691650 272.911926,269.077545 286.150970,238.368744 
	C287.655426,234.878998 289.494507,233.723984 293.210052,233.793137 
	C304.953674,234.011719 304.920227,233.880707 309.576385,244.693680 
	C314.511719,256.154938 319.525208,267.582550 324.671173,279.365753 
M307.199982,282.234100 
	C303.659943,274.005615 300.119934,265.777161 296.579895,257.548676 
	C296.115204,257.504791 295.650482,257.460876 295.185791,257.416992 
	C289.991150,269.641022 284.796478,281.865051 279.416077,294.526154 
	C290.978210,294.526154 301.745880,294.526154 313.461304,294.526154 
	C311.161194,290.178284 309.258636,286.581940 307.199982,282.234100 
z"/>
<path fill="#E42C23" opacity="1.000000" stroke="none" 
	d="
M217.674850,138.082016 
	C211.906082,134.546967 206.196472,133.807205 200.171036,136.137070 
	C192.826126,138.977112 188.298874,145.901047 189.305527,152.773819 
	C190.391296,160.186737 197.167480,166.820053 205.222412,166.751755 
	C209.751053,166.713364 214.450302,164.775589 218.712997,162.883255 
	C221.717133,161.549606 224.203339,159.895905 227.314728,162.136627 
	C224.673004,169.632080 212.973495,174.690002 202.760544,172.908981 
	C190.555008,170.780457 182.212067,161.370087 182.474792,150.027802 
	C182.728104,139.092270 191.312454,129.805603 202.736252,128.108673 
	C214.399567,126.376167 226.036331,132.219177 229.017822,141.459824 
	C224.012253,145.022583 221.255936,140.725067 217.674850,138.082016 
z"/>
<path fill="#E32B23" opacity="1.000000" stroke="none" 
	d="
M440.189148,171.200500 
	C439.378052,171.869629 438.075592,173.260635 437.832581,173.095230 
	C435.615509,171.586166 432.540131,170.204742 431.706909,168.024826 
	C429.793823,163.019882 426.677856,161.573669 421.773071,162.218765 
	C419.646729,162.498459 417.439667,162.420654 415.292450,162.235947 
	C409.510132,161.738571 404.716949,162.076950 402.678223,169.205505 
	C402.020935,171.503738 397.978241,172.833725 395.484222,174.606644 
	C395.079590,174.175583 394.674988,173.744537 394.270355,173.313477 
	C394.509460,172.288513 394.587616,171.191010 395.012054,170.249619 
	C400.411804,158.272751 405.721405,146.250885 411.421509,134.417542 
	C412.502930,132.172531 415.341980,129.094498 417.084839,129.267899 
	C419.323059,129.490585 422.067474,132.220398 423.210602,134.549133 
	C428.337555,144.993256 432.973633,155.678360 437.866211,166.920227 
	C438.693451,168.776123 439.441315,169.988312 440.189148,171.200500 
M423.308105,149.107666 
	C421.612549,145.402420 419.916962,141.697174 417.656403,136.757278 
	C414.566833,143.616455 412.069977,149.159714 409.359558,155.177094 
	C415.413666,155.177094 420.417572,155.177094 425.972748,155.177094 
	C425.044220,153.022476 424.343964,151.397522 423.308105,149.107666 
z"/>
<path fill="#E32B23" opacity="1.000000" stroke="none" 
	d="
M266.034058,163.012695 
	C265.966583,162.248688 265.899139,161.484665 266.166077,160.057373 
	C266.356232,157.271729 266.212006,155.149353 266.067749,153.026993 
	C266.037689,143.656570 275.894135,138.005905 284.565155,142.639160 
	C286.851074,143.860611 288.261536,144.128601 290.731049,142.755142 
	C299.812378,137.704376 309.823212,143.851837 309.925995,154.286667 
	C309.987518,160.530502 309.937286,166.775421 309.937286,173.019852 
	C309.482635,173.317841 309.028015,173.615829 308.573364,173.913818 
	C306.927155,172.189789 305.280975,170.465775 303.540253,167.944275 
	C303.321472,162.423691 303.197205,157.700562 303.072968,152.977432 
	C302.404633,149.023804 299.679230,147.789230 296.196960,148.358902 
	C292.790039,148.916290 291.220398,151.331406 291.239807,154.804550 
	C291.273834,160.892578 291.249298,166.980927 291.249298,173.391144 
	C286.618958,173.008240 284.750092,170.725586 284.620972,166.962372 
	C284.484375,162.981842 284.562012,158.992554 284.603119,155.007690 
	C284.645691,150.876236 282.738647,148.277817 278.592285,147.875870 
	C274.871796,147.515213 272.376831,150.506149 272.280853,155.132019 
	C272.208557,158.617645 272.194611,162.108200 272.293762,165.592606 
	C272.395020,169.149200 271.118225,171.716278 267.262634,172.320816 
	C266.618744,168.821426 266.326385,165.917053 266.034058,163.012695 
z"/>
<path fill="#E42C24" opacity="1.000000" stroke="none" 
	d="
M265.750183,153.340408 
	C266.212006,155.149353 266.356232,157.271729 266.274445,159.685822 
	C264.978394,161.320221 263.612152,162.520889 262.888855,164.029755 
	C259.483673,171.133438 250.553619,175.095490 242.050583,173.094360 
	C233.541138,171.091690 228.157486,164.409424 228.541504,156.326721 
	C228.882355,149.152786 234.523758,143.108368 242.481674,141.390793 
	C250.439087,139.673294 259.022797,143.470184 262.621735,150.167511 
	C263.316254,151.459900 264.483459,152.498276 265.750183,153.340408 
M256.032135,162.421448 
	C258.451904,157.229965 257.790558,153.628036 253.856476,150.572388 
	C249.411270,147.119736 242.901474,147.244385 238.634521,150.863846 
	C233.993088,154.800949 234.105438,160.755249 238.892273,164.525848 
	C243.804703,168.395355 250.109619,167.819229 256.032135,162.421448 
z"/>
<path fill="#E42D24" opacity="1.000000" stroke="none" 
	d="
M319.614471,144.784866 
	C330.040619,136.607681 343.969818,141.811691 347.525879,155.970215 
	C347.645844,157.847168 347.729584,158.953064 347.813293,160.058945 
	C344.886475,169.672348 338.521851,174.486267 329.189117,173.395996 
	C326.724304,173.108047 324.478638,170.944565 321.932434,168.914520 
	C321.836304,167.113708 321.940063,166.040680 322.050934,164.894455 
	C332.765839,168.076202 339.443146,166.045273 340.977936,159.360947 
	C342.142761,154.287781 338.167603,148.912033 332.504517,147.902084 
	C326.096558,146.759308 319.955780,150.916489 318.717560,157.105957 
	C318.152039,164.288208 317.957245,171.341278 317.841797,178.395660 
	C317.838470,178.598557 318.676758,178.815247 319.122650,179.025497 
	C318.937927,179.901672 318.753174,180.777863 317.921173,181.644897 
	C316.527069,179.957169 315.227570,178.308014 315.136292,176.594528 
	C314.854828,171.311371 315.167267,165.998322 314.954437,160.708725 
	C314.890930,159.130981 313.858154,157.592255 313.269501,156.035645 
	C313.546265,154.474991 313.823029,152.914322 314.735657,151.109589 
	C316.842377,150.008392 318.567596,149.387802 319.676971,148.194626 
	C320.234100,147.595413 319.670990,145.954620 319.614471,144.784866 
z"/>
<path fill="#E3261D" opacity="1.000000" stroke="none" 
	d="
M372.970184,128.679810 
	C376.600494,128.679749 379.736938,128.679749 383.046265,128.679749 
	C383.208710,133.236099 380.745880,134.870697 377.311646,135.194702 
	C374.173096,135.490845 370.973633,135.479675 367.826294,135.253067 
	C364.386627,135.005402 363.136169,136.132584 363.225342,139.741684 
	C363.459778,149.232498 363.307129,158.732895 363.308563,168.229462 
	C363.308807,169.843277 363.308594,171.457108 363.308594,173.396454 
	C358.420471,172.874512 356.757172,170.355804 356.761353,166.332245 
	C356.770538,157.502106 356.628693,148.668869 356.830872,139.843369 
	C356.909241,136.422211 355.986725,134.934692 352.360626,135.245148 
	C349.219177,135.514084 346.022614,135.455841 342.873016,135.228592 
	C339.355225,134.974777 337.061340,133.218063 336.928162,128.679855 
	C348.920990,128.679855 360.698639,128.679855 372.970184,128.679810 
z"/>
<path fill="#FCE7E6" opacity="1.000000" stroke="none" 
	d="
M319.099579,156.976959 
	C319.955780,150.916489 326.096558,146.759308 332.504517,147.902084 
	C338.167603,148.912033 342.142761,154.287781 340.977936,159.360947 
	C339.443146,166.045273 332.765839,168.076202 322.050934,164.894455 
	C321.940063,166.040680 321.836304,167.113708 321.711243,168.614014 
	C321.146545,169.050476 320.603180,169.059677 319.652771,168.596924 
	C319.197021,164.408981 319.148285,160.692963 319.099579,156.976959 
z"/>
<path fill="#E3261E" opacity="1.000000" stroke="none" 
	d="
M385.602783,131.013718 
	C387.538544,127.593575 389.317322,129.791901 390.218079,131.171494 
	C391.320312,132.859650 392.054138,135.105194 392.085144,137.122986 
	C392.251465,147.945953 392.162842,158.773087 392.122223,169.598648 
	C392.117493,170.855698 391.865112,172.111847 391.693512,173.679016 
	C386.787170,172.874802 385.470276,169.994370 385.494934,165.893509 
	C385.564026,154.402054 385.544098,142.910065 385.602783,131.013718 
z"/>
<path fill="#E0130A" opacity="1.000000" stroke="none" 
	d="
M313.144836,156.487320 
	C313.858154,157.592255 314.890930,159.130981 314.954437,160.708725 
	C315.167267,165.998322 314.854828,171.311371 315.136292,176.594528 
	C315.227570,178.308014 316.527069,179.957169 317.607300,181.807083 
	C316.756927,182.965042 315.573151,183.951645 314.389374,184.938263 
	C313.932983,184.805893 313.476562,184.673508 313.020142,184.541138 
	C313.020142,175.340424 313.020142,166.139709 313.144836,156.487320 
z"/>
<path fill="#EE7C76" opacity="1.000000" stroke="none" 
	d="
M440.619873,171.296509 
	C439.441315,169.988312 438.693451,168.776123 437.988953,167.262070 
	C438.846985,166.565643 439.624878,165.991089 440.484314,165.815399 
	C442.084869,165.488235 443.902771,164.903412 445.296814,165.386948 
	C446.121948,165.673141 447.072144,168.327286 446.617676,168.985260 
	C445.767181,170.216583 443.962708,170.823196 442.493622,171.568573 
	C442.134766,171.750626 441.537994,171.463776 440.619873,171.296509 
z"/>
<path fill="#E0130A" opacity="1.000000" stroke="none" 
	d="
M318.717560,157.105957 
	C319.148285,160.692963 319.197021,164.408981 319.382263,168.568787 
	C319.475220,172.057220 319.431610,175.101868 319.255310,178.585999 
	C318.676758,178.815247 317.838470,178.598557 317.841797,178.395660 
	C317.957245,171.341278 318.152039,164.288208 318.717560,157.105957 
z"/>
<path fill="#FCE7E6" opacity="1.000000" stroke="none" 
	d="
M302.809937,153.298370 
	C303.197205,157.700562 303.321472,162.423691 303.343384,167.604675 
	C303.009644,163.248123 302.778259,158.433731 302.809937,153.298370 
z"/>
<path fill="#E0130A" opacity="1.000000" stroke="none" 
	d="
M319.314514,144.879700 
	C319.670990,145.954620 320.234100,147.595413 319.676971,148.194626 
	C318.567596,149.387802 316.842377,150.008392 314.995880,150.881897 
	C314.945129,150.088776 315.270081,149.279251 316.047119,148.187927 
	C316.574860,147.603287 316.650452,147.300476 316.726044,146.997650 
	C317.488892,146.323288 318.251740,145.648911 319.314514,144.879700 
z"/>
<path fill="#E42C24" opacity="1.000000" stroke="none" 
	d="
M265.888428,163.368469 
	C266.326385,165.917053 266.618744,168.821426 266.858429,172.216599 
	C266.451447,169.713028 266.097137,166.718643 265.888428,163.368469 
z"/>
<path fill="#FCE7E6" opacity="1.000000" stroke="none" 
	d="
M348.040039,159.904709 
	C347.729584,158.953064 347.645844,157.847168 347.684509,156.339691 
	C347.960175,157.208893 348.113464,158.479675 348.040039,159.904709 
z"/>
<path fill="#FCE7E6" opacity="1.000000" stroke="none" 
	d="
M316.555969,147.108276 
	C316.650452,147.300476 316.574860,147.603287 316.234375,147.905609 
	C316.040344,147.635117 316.179138,147.406387 316.555969,147.108276 
z"/>
<path fill="#E3251D" opacity="1.000000" stroke="none" 
	d="
M307.278015,282.609863 
	C309.258636,286.581940 311.161194,290.178284 313.461304,294.526154 
	C301.745880,294.526154 290.978210,294.526154 279.416077,294.526154 
	C284.796478,281.865051 289.991150,269.641022 295.185791,257.416992 
	C295.650482,257.460876 296.115204,257.504791 296.579895,257.548676 
	C300.119934,265.777161 303.659943,274.005615 307.278015,282.609863 
M299.935089,270.645844 
	C298.819336,268.131439 297.703613,265.617035 296.244843,262.329559 
	C292.014648,272.334717 288.081573,281.637177 283.865387,291.609192 
	C292.488770,291.609192 300.174408,291.609192 308.672455,291.609192 
	C305.701447,284.628448 302.886230,278.013702 299.935089,270.645844 
z"/>
<path fill="#FCE5E3" opacity="1.000000" stroke="none" 
	d="
M423.475891,149.440125 
	C424.343964,151.397522 425.044220,153.022476 425.972748,155.177094 
	C420.417572,155.177094 415.413666,155.177094 409.359558,155.177094 
	C412.069977,149.159714 414.566833,143.616455 417.656403,136.757278 
	C419.916962,141.697174 421.612549,145.402420 423.475891,149.440125 
z"/>
<path fill="#FDF3F2" opacity="1.000000" stroke="none" 
	d="
M255.795044,162.712204 
	C250.109619,167.819229 243.804703,168.395355 238.892273,164.525848 
	C234.105438,160.755249 233.993088,154.800949 238.634521,150.863846 
	C242.901474,147.244385 249.411270,147.119736 253.856476,150.572388 
	C257.790558,153.628036 258.451904,157.229965 255.795044,162.712204 
z"/>
<path fill="#E2231A" opacity="1.000000" stroke="none" 
	d="
M300.003052,271.022400 
	C302.886230,278.013702 305.701447,284.628448 308.672455,291.609192 
	C300.174408,291.609192 292.488770,291.609192 283.865387,291.609192 
	C288.081573,281.637177 292.014648,272.334717 296.244843,262.329559 
	C297.703613,265.617035 298.819336,268.131439 300.003052,271.022400 
z"/>
</svg>